<svg xmlns="http://www.w3.org/2000/svg" xmlns:xlink="http://www.w3.org/1999/xlink" width="512" height="512" x="0" y="0" viewBox="0 0 512 512" style="enable-background:new 0 0 512 512" xml:space="preserve"><g transform="matrix(1.04,0,0,1.04,-10.239985351562552,-10.239985237121573)"><path fill-rule="evenodd" d="m282.097 18.558 26.237 19.639c7.176 5.371 14.729 8.12 23.678 8.618l32.722 1.82c19.594 1.09 35.507 14.443 39.983 33.55l7.475 31.909c2.044 8.727 6.063 15.688 12.598 21.821l23.897 22.429c14.309 13.429 17.916 33.887 9.063 51.401l-14.785 29.249c-4.043 7.999-5.439 15.915-4.375 24.814l3.89 32.542c2.329 19.485-8.058 37.475-26.097 45.201l-30.127 12.902c-8.24 3.529-14.397 8.695-19.302 16.197l-17.938 27.428c-10.74 16.423-30.261 23.528-49.046 17.851l-31.372-9.481c-8.58-2.593-16.617-2.593-25.197 0l-31.372 9.481c-18.785 5.677-38.305-1.428-49.046-17.851l-17.938-27.428c-4.906-7.502-11.063-12.668-19.303-16.196L95.617 341.55c-18.039-7.725-28.426-25.716-26.097-45.201l3.89-32.542c1.063-8.9-.332-16.815-4.376-24.814l-14.785-29.249c-8.853-17.513-5.245-37.971 9.063-51.401l23.897-22.429c6.535-6.134 10.554-13.094 12.598-21.821l7.475-31.909c4.476-19.107 20.389-32.46 39.983-33.55l32.722-1.82c8.95-.498 16.503-3.247 23.678-8.618l26.237-19.639c15.711-11.759 36.485-11.759 52.195.001zm-42.833 206.481-28.473-28.473c-7.38-7.379-19.35-7.379-26.73 0-7.379 7.38-7.379 19.35 0 26.729l41.879 41.878c7.379 7.379 19.35 7.379 26.729 0 25.243-25.243 50.199-50.769 75.324-76.128 7.326-7.394 7.303-19.326-.082-26.67-7.386-7.346-19.352-7.325-26.686.083zM256 71.932c-39.174 0-74.641 15.879-100.315 41.552-25.673 25.673-41.552 61.14-41.552 100.314s15.88 74.642 41.552 100.314c25.673 25.673 61.14 41.552 100.315 41.552 39.174 0 74.642-15.88 100.314-41.552 25.673-25.672 41.552-61.14 41.552-100.314 0-39.175-15.879-74.641-41.552-100.314C330.642 87.812 295.175 71.932 256 71.932zm89.002 52.865C322.225 102.02 290.758 87.932 256 87.932s-66.225 14.088-89.002 36.865-36.865 54.244-36.865 89.002 14.088 66.225 36.865 89.002 54.244 36.865 89.002 36.865 66.225-14.088 89.002-36.865 36.865-54.244 36.865-89.002-14.088-66.225-36.865-89.002zm-35.694 308.942 31.094 66.788c.484 1.039 1.439 1.679 2.584 1.731s2.154-.498 2.73-1.49l23.191-39.91 45.471 7.945c1.129.197 2.2-.22 2.897-1.13s.823-2.052.339-3.091l-38.663-83.045-16.544 25.297c-11.941 18.259-32.162 28.143-53.099 26.905zm-105.415-.083c-21.362 1.694-42.13-8.215-54.299-26.822l-15.866-24.26-38.18 82.008a2.933 2.933 0 0 0 .339 3.091 2.935 2.935 0 0 0 2.897 1.13l45.471-7.945 23.192 39.91c.576.991 1.585 1.541 2.73 1.489s2.1-.691 2.584-1.731z" clip-rule="evenodd" fill="#FFFFFF" opacity="1" data-original="#000000"></path></g></svg>