<svg xmlns="http://www.w3.org/2000/svg" xmlns:xlink="http://www.w3.org/1999/xlink" width="512" height="512" x="0" y="0" viewBox="0 0 64 64" style="enable-background:new 0 0 512 512" xml:space="preserve"><g><path d="M19.5 55.7c-.4-.3-.9-.6-1.3-.8.1-.8 0-1.7-.2-2.6-.4-1.5-1.2-2.9-2.3-4.2-1 .8-1.5 2.2-1.3 3.7-.7-.7-1.4-1.4-2-2.1.4-.7.6-1.6.6-2.5.1-1.5-.2-3-.9-4.5-1.3.5-2.1 1.8-2.3 3.3-.5-.8-.9-1.7-1.3-2.5.6-.6 1.1-1.4 1.4-2.3.5-1.4.6-2.9.3-4.5-1.4.2-2.6 1.2-3.2 2.7-.3-1-.5-1.9-.6-2.9.8-.4 1.5-1.1 2-1.9.8-1.2 1.4-2.7 1.5-4.3-1.5-.2-3 .6-3.9 2 0-1 .1-2.1.2-3.1.9-.2 1.8-.7 2.6-1.3 1.1-.9 2-2.2 2.6-3.7-1.4-.6-3.1-.2-4.4 1 .3-1 .6-2.1 1-3.1 1 .1 2-.2 2.9-.6 1.3-.6 2.5-1.6 3.5-3-1.2-1-3-1-4.6-.1.6-1 1.2-1.9 1.9-2.8.9.4 2 .4 3.1.2 1.5-.3 3-.9 4.4-2-.9-1.3-2.7-1.8-4.6-1.3C16 11.2 17.5 10 19.3 9c.5-.3.7-.9.4-1.4s-1-.7-1.5-.4c-1.9 1.1-3.6 2.4-5.1 3.8.8-2 .9-3.8 0-5.2C11.3 7 10 9 9.7 10.7c-.3 1.3-.1 2.4.5 3.3-.8 1-1.5 2.1-2.1 3.1.2-2.1-.3-3.9-1.5-4.9-1.4 1.9-2 4.1-1.8 5.8.1 1.3.6 2.3 1.4 3-.5 1.2-.9 2.3-1.2 3.5-.4-2-1.3-3.6-2.8-4.3-.8 2.2-.8 4.4-.2 6 .5 1.2 1.2 2 2.2 2.5-.2 1.2-.2 2.4-.2 3.6-.9-1.8-2.2-3-3.8-3.2-.2 2.3.4 4.4 1.4 5.8.7 1 1.7 1.6 2.7 1.8.1 1.2.4 2.3.6 3.4-1.3-1.4-2.8-2.2-4.4-2 .4 2.3 1.5 4.2 2.9 5.2.9.8 2 1.1 2.9 1 .4 1 .9 2.1 1.4 3-1.7-.7-3.3-1.1-4.7-.5 1 2.1 2.6 3.7 4.2 4.4 1.1.5 2.1.5 3 .3.7.9 1.4 1.7 2.2 2.5-1.7-.4-3.2-.3-4.3.6 1.6 1.8 3.7 2.9 5.5 3.2 1.1.2 2.1 0 2.9-.4.4.3.9.6 1.3.9.8.5 1.8.2 2.2-.6.4-.7.2-1.6-.5-2zM59.3 40.1c.3-1.1.5-2.3.6-3.4 1-.2 1.9-.8 2.7-1.8 1-1.4 1.6-3.5 1.4-5.8-1.6.2-2.9 1.5-3.8 3.2 0-1.2-.1-2.4-.2-3.6.9-.4 1.7-1.3 2.2-2.5.6-1.6.7-3.8-.2-6-1.5.7-2.4 2.3-2.8 4.3-.3-1.2-.7-2.4-1.2-3.5.8-.7 1.3-1.7 1.4-3 .2-1.7-.4-3.9-1.8-5.8-1.3 1-1.7 2.9-1.5 4.9-.8-1.1-1.5-2.1-2.3-3.1.6-.8.8-2 .5-3.3C54 9 52.7 7 50.7 5.4c-.9 1.3-.8 3.2 0 5.2-1.5-1.4-3.2-2.7-5.1-3.8-.5-.3-1.2-.1-1.5.4s-.1 1.1.4 1.4c1.7 1 3.3 2.2 4.7 3.5-1.9-.5-3.7 0-4.6 1.3 1.4 1.1 2.9 1.7 4.4 2 1.1.2 2.2.2 3.1-.2.7.9 1.4 1.9 1.9 2.8-1.6-.9-3.4-.9-4.6.1 1 1.3 2.2 2.4 3.5 3 1 .5 2 .7 2.9.6.4 1 .7 2 1 3.1-1.3-1.2-3-1.6-4.4-1 .6 1.5 1.5 2.8 2.6 3.7.8.7 1.7 1.1 2.6 1.3.1 1 .2 2.1.2 3.1-.9-1.4-2.4-2.2-3.9-2 .2 1.6.7 3.1 1.5 4.3.5.8 1.2 1.5 2 1.9-.2 1-.4 1.9-.6 2.9-.6-1.5-1.7-2.6-3.2-2.7-.3 1.6-.1 3.2.3 4.5.3.9.7 1.7 1.4 2.3-.4.9-.8 1.7-1.3 2.5-.2-1.5-1-2.8-2.3-3.3-.7 1.5-1 3-.9 4.5 0 .9.2 1.8.6 2.5-.6.7-1.3 1.4-2 2.1.2-1.5-.2-2.9-1.3-3.7-1.1 1.3-1.9 2.7-2.3 4.2-.2.9-.3 1.8-.2 2.6-.4.3-.8.6-1.3.8-.7.4-.9 1.3-.6 2 .4.8 1.4 1.1 2.2.6.5-.3.9-.6 1.3-.9.8.4 1.8.6 2.9.4 1.8-.3 3.9-1.4 5.5-3.2-1.1-.9-2.6-1-4.3-.6.8-.8 1.5-1.6 2.2-2.5.9.2 1.9.1 3-.3 1.6-.7 3.2-2.2 4.2-4.4-1.4-.6-3-.2-4.5.7.5-1 1-2 1.4-3 1 0 2-.3 2.9-1 1.3-1.1 2.5-2.9 2.9-5.2-1.3 0-2.8.9-4.1 2.2z" fill="#FFFFFF" opacity="1" data-original="#000000"></path><path d="m44.3 49.3-2.1-12.1 8.8-8.6c.3-.3.4-.7.3-1-.1-.4-.4-.6-.8-.7l-12.2-1.8-5.4-11c-.2-.3-.5-.6-.9-.6s-.7.2-.9.6l-5.4 11-12.2 1.8c-.4.1-.7.3-.8.7s0 .8.3 1l8.8 8.6-2.1 12.1c-.1.4.1.8.4 1s.7.3 1.1.1L32 44.6l10.9 5.7c.1.1.3.1.5.1s.4-.1.6-.2c.2-.2.4-.5.3-.9z" fill="#FFFFFF" opacity="1" data-original="#000000"></path></g></svg>