<svg xmlns="http://www.w3.org/2000/svg" width="40" height="40" viewBox="0 0 40 40" fill="none"><path d="M32.1665 10.4998C33.8332 12.3332 34.8332 14.3332 34.8332 17.6665C34.8332 23.4998 30.6665 28.6665 24.8332 31.3332L23.3332 29.1665C28.8332 26.1665 29.9998 22.3332 30.3332 19.8332C29.4998 20.3332 28.3332 20.4998 27.1665 20.3332C24.1665 19.9998 21.8332 17.6665 21.8332 14.4998C21.8332 12.9998 22.4998 11.4998 23.4998 10.3332C24.6665 9.1665 25.9998 8.6665 27.6665 8.6665C29.4998 8.6665 31.1665 9.49984 32.1665 10.4998ZM15.4998 10.4998C17.1665 12.3332 18.1665 14.3332 18.1665 17.6665C18.1665 23.4998 13.9998 28.6665 8.1665 31.3332L6.6665 29.1665C12.1665 26.1665 13.3332 22.3332 13.6665 19.8332C12.8332 20.3332 11.6665 20.4998 10.4998 20.3332C7.49984 19.9998 5.1665 17.4998 5.1665 14.4998C5.1665 12.9998 5.83317 11.4998 6.83317 10.3332C7.99984 9.1665 9.33317 8.6665 10.9998 8.6665C12.8332 8.6665 14.4998 9.49984 15.4998 10.4998Z" fill="#579E6E"></path></svg>