<svg width="71" height="20" viewBox="0 0 71 20" fill="none" xmlns="http://www.w3.org/2000/svg">
<mask id="mask0_10_29" style="mask-type:alpha" maskUnits="userSpaceOnUse" x="0" y="0" width="21" height="20">
<path fill-rule="evenodd" clip-rule="evenodd" d="M4.97091 0.00909054L5.82667 0L14.7279 0.00363668C14.863 0.0048488 14.9473 0.0066663 15.0309 0.00909054C15.4721 0.0206057 15.9176 0.0460606 16.3539 0.124242C16.7911 0.197993 17.2148 0.336056 17.6115 0.53394C18.0067 0.732728 18.3691 0.992121 18.6824 1.30303C18.9959 1.61246 19.2583 1.96962 19.46 2.36121C19.6661 2.75939 19.7952 3.16727 19.8745 3.60485C19.9533 4.03636 19.9794 4.47636 19.9909 4.91273C19.997 5.11273 19.9994 5.31273 20 5.51333L20.0012 5.8703V13.7715C20.0012 14.0091 20.0012 14.2473 20 14.4855C19.9988 14.6855 19.997 14.8855 19.9909 15.0855C19.9788 15.5218 19.9533 15.9624 19.8745 16.3933C19.7998 16.8264 19.66 17.2457 19.46 17.637C19.2582 18.0287 18.9958 18.386 18.6824 18.6958C18.3679 19.0066 18.0065 19.2661 17.6115 19.4648C17.2149 19.6628 16.7911 19.8008 16.3539 19.8745C15.9176 19.9521 15.4721 19.9776 15.0309 19.9897L13.7012 20L5.27333 19.9952C5.17251 19.9941 5.0717 19.992 4.97091 19.9891C4.5297 19.9782 4.08424 19.9521 3.64788 19.8745C3.21096 19.8008 2.78738 19.6627 2.39091 19.4648C1.5973 19.0655 0.949993 18.4258 0.541212 17.637C0.341502 17.2455 0.20176 16.8263 0.126666 16.3933C0.0478786 15.9624 0.022424 15.5218 0.0109089 15.0861C0.00484827 14.8861 0.00303046 14.6855 0.00181834 14.4855L0 14.1273V6.22727C0 5.9897 1.57196e-07 5.75152 0.00181834 5.51394C0.00303046 5.31394 0.00545433 5.11394 0.0109089 4.91333C0.0230301 4.47697 0.0484846 4.03697 0.126666 3.60545C0.201715 3.17247 0.34146 2.75323 0.541212 2.36182C0.949396 1.57278 1.5966 0.932993 2.3903 0.53394C2.78697 0.336047 3.21076 0.197984 3.64788 0.124242C4.08424 0.0466666 4.5297 0.0212118 4.97091 0.00909054Z" fill="white"/>
</mask>
<g mask="url(#mask0_10_29)">
<path d="M0 -0.000976562H20.0018V20.0008H0V-0.000976562Z" fill="#19AA1E"/>
<path fill-rule="evenodd" clip-rule="evenodd" d="M0 -0.000976562H20.0018V6.56145L0 3.4366V-0.000976562Z" fill="#FFB919"/>
<path fill-rule="evenodd" clip-rule="evenodd" d="M0 17.8123L20.0018 14.6875V20.0002H0V17.8123Z" fill="#82D714"/>
<path fill-rule="evenodd" clip-rule="evenodd" d="M0 3.04102L6.98182 4.13193C7.85091 3.58162 8.88485 3.2798 10.0006 3.2798C11.5461 3.2798 12.9352 3.85859 13.9461 4.87435C14.0733 5.00283 14.1933 5.13677 14.3067 5.27617L20.0018 6.16586V6.95677L14.8848 6.15677C15.2678 6.88891 15.4684 7.70265 15.4697 8.5289C15.4697 9.60041 15.2303 10.6689 14.7345 11.7416L14.72 11.7743L14.5091 12.2253H14.0121C12.9842 12.2253 12.303 12.5325 11.857 13.0774C11.5073 13.5047 11.3048 14.0816 11.237 14.7107L11.2345 14.7301L11.2248 14.8307L11.2206 14.8743L11.2121 14.9598C11.1861 15.241 11.1691 15.4792 11.16 15.6731L20.0018 14.2913V15.0822L0 18.2077V17.4168L8.85151 16.0337L8.84788 15.8562L8.84667 15.8065L8.84545 15.7804L8.84424 15.741C8.83636 15.5259 8.81636 15.2501 8.78485 14.9156L8.77879 14.8519L8.76788 14.7422C8.70485 14.1095 8.50545 13.5259 8.15576 13.0919C7.71515 12.5434 7.04061 12.2313 6.02061 12.2253H5.49212L5.28182 11.7743C4.77636 10.6907 4.53151 9.61132 4.53151 8.5289C4.53151 7.16768 5.08364 5.85132 6.05576 4.87435L6.14061 4.79132L0 3.83132V3.04102Z" fill="white"/>
<path fill-rule="evenodd" clip-rule="evenodd" d="M10.0006 4.06152C12.7933 4.06152 14.6885 6.21062 14.6885 8.5294C14.6885 9.46031 14.4855 10.4288 14.0115 11.4446C11.2643 11.4446 10.5861 13.4118 10.4576 14.6506L10.4491 14.7324C10.4061 15.1749 10.3806 15.5294 10.374 15.7961L9.62971 15.9124V15.8882C9.61935 15.4943 9.59266 15.1011 9.54971 14.7094L9.5479 14.6876C9.42911 13.4518 8.76547 11.4446 5.99032 11.4446C5.51577 10.4288 5.31274 9.46031 5.31274 8.5294C5.31274 6.21062 7.2085 4.06152 10.0006 4.06152Z" fill="#0073FA"/>
</g>
<path fill-rule="evenodd" clip-rule="evenodd" d="M29.6147 3.63672C26.5335 3.63672 24.2232 5.46884 24.2426 8.65066H27.1062C27.0668 7.37793 27.8959 6.14339 29.6147 6.14339C30.9177 6.14339 31.7474 6.99187 31.7474 8.07187C31.7474 9.19066 30.8383 9.80763 29.3777 10.5022C27.4619 11.4082 26.3165 11.8325 24.2426 12.507V16.1713H34.9068V13.664H28.1135C29.1032 13.261 30.0668 12.8185 30.9377 12.4107C33.248 11.3313 34.6104 10.1161 34.6104 7.93733C34.6104 5.31429 32.5965 3.63672 29.6147 3.63672ZM39.2516 6.33611H44.7813V3.82945H36.4868V16.1713H39.2516V6.33611ZM49.1262 3.82945H46.3613V16.1713H49.1062L54.2607 8.28399V16.1713H57.0256V3.82945H54.2607L49.1262 11.7167V3.82945ZM70.9092 11.5428H68.0456C67.611 12.9125 66.288 13.8573 64.728 13.8573C62.4565 13.8573 60.9753 11.9482 60.9753 10.0004C60.9753 8.05248 62.4171 6.14339 64.8068 6.14339C66.3868 6.14339 67.611 7.08884 68.0456 8.45793H70.9092C70.4947 5.70036 68.2632 3.63672 64.728 3.63672C60.8177 3.63672 58.2104 6.31732 58.2104 10.0004C58.2104 13.6834 60.8177 16.364 64.728 16.364C68.2632 16.364 70.4947 14.3397 70.9092 11.5428Z" fill="#262626"/>
</svg>
