<svg width="80" height="20" viewBox="0 0 80 20" fill="none" xmlns="http://www.w3.org/2000/svg">
<g clip-path="url(#clip0_9_18)">
<path d="M0 0H20V20H0V0Z" fill="#303540"/>
<path d="M7.96439 7.96415C6.85725 9.07129 6.85725 10.8927 7.96439 11.9999C9.07153 13.107 10.893 13.107 12.0001 11.9999C13.1072 10.8927 13.1072 9.07129 12.0001 7.96415C10.893 6.857 9.10725 6.857 7.96439 7.96415Z" fill="#FEFEFE"/>
<path d="M14.6428 5.57182V9.96467C14.6428 12.5718 12.5714 14.6432 9.96426 14.6432H5.5714C8.10712 17.0718 12.0714 17.0361 14.5357 14.5361C17 12.0718 17.0357 8.10753 14.6428 5.57182ZM5.35712 10.0361C5.35712 7.42896 7.42855 5.35753 10.0357 5.35753H14.4285C11.8928 2.92896 7.92855 2.96467 5.46426 5.46467C2.99998 7.96467 2.96426 11.929 5.35712 14.429V10.0361Z" fill="white"/>
<path d="M20 0H80V20H20V0Z" fill="#2E6BE5"/>
<path d="M30.1072 10.8214C28.8215 10.4643 27.8572 9.42857 27.8572 7.92857C27.8572 6.07143 29.3929 5 31.0357 5H38.8572V7.25H34.2857V9H37.8215V11.1786H34.2857V14.2857H31.8572V7.17857H31C30.6072 7.17857 30.1429 7.42857 30.1429 7.92857C30.1429 8.32143 30.3929 8.57143 30.7143 8.71429L30.1072 10.8214ZM40 14.2857V5H42.5V14.2857H40ZM46.8215 7.28571C48.6786 7.28571 50 8.17857 50 10.0357V14.2857H47.8929V13.5714C47.5 14.2857 46.6072 14.5 45.75 14.5C44.25 14.5 43.3929 13.4286 43.3929 12.2143C43.3929 11.1786 44.2143 9.92857 46.25 9.92857H47.7143V9.82143C47.7143 9.03571 47.4286 8.75 46.7857 8.75C46.2143 8.75 45.8572 9.03571 45.8215 9.57143H43.6786C43.7858 8.25 44.8572 7.28571 46.8215 7.28571ZM47.75 11.6786V11.2857H46.7143C46.1072 11.2857 45.6429 11.6071 45.6429 12.0714C45.6429 12.5714 46 12.8214 46.6072 12.8214C47.3215 12.8214 47.75 12.3214 47.75 11.6786ZM57.2857 8.5C57.75 7.64286 58.4286 7.32143 59.3215 7.32143C61.0358 7.32143 61.7857 8.39286 61.7857 10.1071V14.2857H59.4643V10.5714C59.4643 9.78571 59.3215 9.32143 58.6429 9.32143C57.8929 9.32143 57.6786 9.89286 57.6786 10.6429V14.2857H55.3572V10.5714C55.3572 9.78571 55.1786 9.32143 54.4643 9.32143C53.7143 9.32143 53.4643 9.96429 53.4643 10.75V14.3214H51.0715V7.5H53.3215V8.5C53.7858 7.53571 54.6072 7.28571 55.3572 7.28571C56.25 7.28571 56.8929 7.64286 57.2857 8.5ZM65.1429 8.42857C65.6072 7.57143 66.4643 7.28571 67.2857 7.28571C69.0715 7.28571 70.1429 8.78571 70.1429 10.8929C70.1429 13.0357 69.0357 14.5 67.2857 14.5C66.4643 14.5 65.6429 14.25 65.2143 13.5714V16.7857H62.8572V7.5H65.1429V8.42857ZM66.4286 12.6429C67.4286 12.6429 67.8215 11.8214 67.8215 10.8929C67.8215 9.96429 67.4643 9.17857 66.4286 9.17857C65.4643 9.17857 65.0358 9.96429 65.0358 10.8929C65.0715 11.8214 65.4643 12.6429 66.4286 12.6429Z" fill="white"/>
</g>
<defs>
<clipPath id="clip0_9_18">
<rect width="80" height="20" fill="white"/>
</clipPath>
</defs>
</svg>
