<svg width="62" height="20" viewBox="0 0 62 20" fill="none" xmlns="http://www.w3.org/2000/svg">
<g clip-path="url(#clip0_15_39)">
<path d="M7.7415 6.825V8.875H12.668C12.5172 10.025 12.1318 10.8667 11.5453 11.4583C10.8247 12.175 9.70204 12.9583 7.7415 12.9583C4.70853 12.9583 2.33745 10.525 2.33745 7.50833C2.33745 4.49167 4.70853 2.05833 7.7415 2.05833C9.37528 2.05833 10.5734 2.7 11.4531 3.525L12.9026 2.08333C11.6793 0.9 10.0372 0 7.7415 0C3.58582 0 0.092041 3.36667 0.092041 7.5C0.092041 11.6333 3.58582 15 7.7415 15C9.98691 15 11.6793 14.2667 13.0031 12.9C14.3604 11.55 14.7877 9.64167 14.7877 8.10833C14.7877 7.63333 14.7542 7.19167 14.6788 6.825H7.7415Z" fill="#4285F4"/>
<path d="M20.9459 5.1582C18.2564 5.1582 16.0613 7.19154 16.0613 9.99987C16.0613 12.7832 18.2564 14.8415 20.9459 14.8415C23.6353 14.8415 25.8305 12.7915 25.8305 9.99987C25.8305 7.19154 23.6353 5.1582 20.9459 5.1582ZM20.9459 12.9332C19.4713 12.9332 18.1978 11.7249 18.1978 9.99987C18.1978 8.2582 19.4713 7.06654 20.9459 7.06654C22.4205 7.06654 23.694 8.2582 23.694 9.99987C23.694 11.7249 22.4205 12.9332 20.9459 12.9332Z" fill="#EA4335"/>
<path d="M44.8913 6.24154H44.8159C44.3383 5.67487 43.4167 5.1582 42.2521 5.1582C39.8224 5.1582 37.7026 7.26654 37.7026 9.99987C37.7026 12.7165 39.8224 14.8415 42.2521 14.8415C43.4167 14.8415 44.3383 14.3249 44.8159 13.7415H44.8913V14.4165C44.8913 16.2665 43.8943 17.2582 42.294 17.2582C40.987 17.2582 40.1743 16.3249 39.8391 15.5332L37.9791 16.2999C38.5153 17.5832 39.9313 19.1582 42.294 19.1582C44.7991 19.1582 46.9189 17.6915 46.9189 14.1165V5.4082H44.8913V6.24154ZM42.4364 12.9332C40.9618 12.9332 39.8391 11.6832 39.8391 9.99987C39.8391 8.29154 40.9618 7.06654 42.4364 7.06654C43.8943 7.06654 45.0337 8.31654 45.0337 10.0165C45.0421 11.7082 43.8943 12.9332 42.4364 12.9332Z" fill="#4285F4"/>
<path d="M31.8377 5.1582C29.1483 5.1582 26.9531 7.19154 26.9531 9.99987C26.9531 12.7832 29.1483 14.8415 31.8377 14.8415C34.5272 14.8415 36.7223 12.7915 36.7223 9.99987C36.7223 7.19154 34.5272 5.1582 31.8377 5.1582ZM31.8377 12.9332C30.3631 12.9332 29.0896 11.7249 29.0896 9.99987C29.0896 8.2582 30.3631 7.06654 31.8377 7.06654C33.3123 7.06654 34.5858 8.2582 34.5858 9.99987C34.5858 11.7249 33.3123 12.9332 31.8377 12.9332Z" fill="#FBBC05"/>
<path d="M48.5945 0.200195H50.6975V14.8419H48.5945V0.200195Z" fill="#34A853"/>
<path d="M57.1907 12.9332C56.1015 12.9332 55.3307 12.4415 54.828 11.4665L61.338 8.79154L61.1201 8.24154C60.718 7.1582 59.478 5.1582 56.9561 5.1582C54.451 5.1582 52.3647 7.11654 52.3647 9.99987C52.3647 12.7165 54.4258 14.8415 57.1907 14.8415C59.4193 14.8415 60.7096 13.4832 61.2458 12.6999L59.5869 11.5999C59.0339 12.3999 58.2799 12.9332 57.1907 12.9332ZM57.0399 6.97487C57.9029 6.97487 58.6402 7.41654 58.8831 8.04154L54.4845 9.84987C54.4845 7.81654 55.9339 6.97487 57.0399 6.97487Z" fill="#EA4335"/>
</g>
<defs>
<clipPath id="clip0_15_39">
<rect width="62" height="20" fill="white"/>
</clipPath>
</defs>
</svg>
