<svg width="70" height="20" viewBox="0 0 70 20" fill="none" xmlns="http://www.w3.org/2000/svg">
<g clip-path="url(#clip0_9_4)">
<path d="M66.7384 17.4154C68.1117 17.4154 69.0844 17.1701 69.8092 16.6418V14.2456C69.0654 14.755 68.1689 15.0758 66.91 15.0758C64.7929 15.0758 63.9155 13.4532 63.9155 10.8871C63.9155 8.18901 64.9836 6.81165 66.9291 6.81165C68.0735 6.81165 69.1989 7.20788 69.7902 7.58524V5.09467C69.1607 4.75505 68.0735 4.50977 66.5858 4.50977C62.7902 4.50977 60.8256 7.20788 60.8256 10.9815C60.8447 15.1135 62.7711 17.4154 66.7384 17.4154ZM48.1798 16.3211V13.9249C47.2643 14.5475 45.7002 15.0947 44.2697 15.0947C42.0953 15.0947 41.2752 14.0758 41.1417 12.0003H48.3133V10.4532C48.3133 6.13241 46.3869 4.50977 43.4305 4.50977C39.8065 4.50977 38.0899 7.24561 38.0899 11.0003C38.0899 15.3211 40.2452 17.4154 44.0218 17.4154C45.9101 17.4154 47.3024 16.906 48.1798 16.3211ZM20.9618 4.73618V9.64184H16.9945V4.73618H14.019V17.1701H16.9945V11.9815H20.9618V17.1701H23.9373V4.73618H20.9618ZM37.346 14.8305H36.0299V4.73618H27.3705V5.79278C27.3705 8.83052 27.1798 12.755 26.1308 14.8305H25.1771V20.0003H27.9237V17.1701H34.5804V20.0003H37.3269V14.8305H37.346ZM57.6594 17.1701H61.0354L56.267 10.472L60.4632 4.73618H57.4686L53.2724 10.472V4.73618H50.297V17.1701H53.2724V11.0569L57.6594 17.1701ZM43.3542 6.81165C44.8229 6.81165 45.2806 8.0192 45.2806 9.58524V9.83052H41.1417C41.218 7.84939 41.9427 6.81165 43.3542 6.81165ZM33.0545 14.8305H28.8583C29.6784 12.9626 29.9073 9.56637 29.9073 7.41543V7.03807H33.0545V14.8305Z" fill="black"/>
<path d="M11.5395 17.1698H8.50681V2.32075H7.15259C4.67302 2.32075 3.37602 3.54717 3.37602 5.37736C3.37602 7.45283 4.27248 8.41509 6.12262 9.64151L7.6485 10.6604L3.26158 17.1698H0L3.94823 11.3585C1.67847 9.75472 0.400545 8.18868 0.400545 5.54717C0.400545 2.24528 2.72752 0 7.13352 0H11.5204V17.1698H11.5395Z" fill="#FC3F1D"/>
</g>
<defs>
<clipPath id="clip0_9_4">
<rect width="70" height="20" fill="white"/>
</clipPath>
</defs>
</svg>
