<svg width="78" height="20" viewBox="0 0 78 20" fill="none" xmlns="http://www.w3.org/2000/svg">
    <defs>
        <linearGradient x1="77.3431356%" y1="50%" x2="21.8112673%" y2="50%" id="lg">
            <stop stop-color="#6339F5" offset="0%"></stop>
            <stop stop-color="#3D3F55" offset="100%"></stop>
        </linearGradient>
    </defs>
    <path
            d="M0.684946 1.24574H16.928C17.3062 1.24574 17.6129 1.55044 17.6129 1.9263V5.1C17.6129 5.52274 17.4283 5.92301 17.1069 6.2L8.02365 13.75H16.928C17.3062 13.75 17.6129 14.0491 17.6129 14.425V18.0685C17.6129 18.4444 17.3062 18.7491 16.928 18.7491H0.684946C0.306661 18.7491 0 18.4444 0 18.0685V14.9C0 14.4773 0.184627 14.077 0.506042 13.8L9.58925 6.25H0.684946C0.306661 6.25 0 5.93836 0 5.5625V1.9263C0 1.55044 0.306661 1.24574 0.684946 1.24574ZM28.9355 0.625C30.8136 0.625 32.488 1.04464 33.8859 1.8115C35.2837 2.57836 36.405 3.69244 37.1768 5.08133C37.9486 6.47022 38.371 8.13391 38.371 10C38.371 11.8661 37.9486 13.5298 37.1768 14.9187C36.405 16.3076 35.2837 17.4216 33.8859 18.1885C32.488 18.9554 30.8136 19.375 28.9355 19.375C27.0574 19.375 25.3829 18.9554 23.9851 18.1885C22.5872 17.4216 21.466 16.3076 20.6941 14.9187C19.9223 13.5298 19.5 11.8661 19.5 10C19.5 8.13391 19.9223 6.47022 20.6941 5.08133C21.466 3.69244 22.5872 2.57836 23.9851 1.8115C25.3829 1.04464 27.0574 0.625 28.9355 0.625ZM28.9355 5.625C28.0371 5.625 27.2484 5.81356 26.596 6.16416C25.9437 6.51476 25.4278 7.02739 25.0749 7.67554C24.722 8.32369 24.5323 9.10735 24.5323 10C24.5323 10.8926 24.722 11.6763 25.0749 12.3245C25.4278 12.9726 25.9437 13.4852 26.596 13.8358C27.2484 14.1864 28.0371 14.375 28.9355 14.375C29.8339 14.375 30.6226 14.1864 31.2749 13.8358C31.9273 13.4852 32.4432 12.9726 32.7961 12.3245C33.1489 11.6763 33.3387 10.8926 33.3387 10C33.3387 9.10735 33.1489 8.32369 32.7961 7.67554C32.4432 7.02739 31.9273 6.51476 31.2749 6.16416C30.6226 5.81356 29.8339 5.625 28.9355 5.625ZM49.0645 0.625C50.9426 0.625 52.6171 1.04464 54.0149 1.8115C55.4128 2.57836 56.534 3.69244 57.3058 5.08133C58.0776 6.47022 58.5 8.13391 58.5 10C58.5 11.8661 58.0776 13.5298 57.3058 14.9187C56.534 16.3076 55.4128 17.4216 54.0149 18.1885C52.6171 18.9554 50.9426 19.375 49.0645 19.375C47.1864 19.375 45.512 18.9554 44.1141 18.1885C42.7163 17.4216 41.595 16.3076 40.8232 14.9187C40.0514 13.5298 39.629 11.8661 39.629 10C39.629 8.13391 40.0514 6.47022 40.8232 5.08133C41.595 3.69244 42.7163 2.57836 44.1141 1.8115C45.512 1.04464 47.1864 0.625 49.0645 0.625ZM49.0645 5.625C48.1661 5.625 47.3774 5.81356 46.7251 6.16416C46.0727 6.51476 45.5568 7.02739 45.2039 7.67554C44.8511 8.32369 44.6613 9.10735 44.6613 10C44.6613 10.8926 44.8511 11.6763 45.2039 12.3245C45.5568 12.9726 46.0727 13.4852 46.7251 13.8358C47.3774 14.1864 48.1661 14.375 49.0645 14.375C49.9629 14.375 50.7516 14.1864 51.404 13.8358C52.0563 13.4852 52.5722 12.9726 52.9251 12.3245C53.278 11.6763 53.4677 10.8926 53.4677 10C53.4677 9.10735 53.278 8.32369 52.9251 7.67554C52.5722 7.02739 52.0563 6.51476 51.404 6.16416C50.7516 5.81356 49.9629 5.625 49.0645 5.625ZM78.0021 1.92846V18.0682C78.0021 18.4441 77.6955 18.7488 77.3172 18.7488H74.1252C73.6997 18.7488 73.2969 18.5654 73.0181 18.2461L65.4193 9.22218V18.0682C65.4193 18.4441 65.1057 18.7488 64.7274 18.7488H61.0699C60.6916 18.7488 60.385 18.4441 60.385 18.0682V1.92846C60.385 1.55258 60.6916 1.24787 61.0699 1.24787H64.2619C64.6875 1.24787 65.0902 1.43136 65.369 1.75079L72.9677 10.7778V1.92846C72.9677 1.55258 73.2688 1.24787 73.6471 1.24787H77.3172C77.6955 1.24787 78.0021 1.55258 78.0021 1.92846Z"
            fill="url(#lg)" />
</svg>